<?xml version="1.0" encoding="UTF-8" standalone="no"?>
<svg
   xmlns:dc="http://purl.org/dc/elements/1.1/"
   xmlns:cc="http://creativecommons.org/ns#"
   xmlns:rdf="http://www.w3.org/1999/02/22-rdf-syntax-ns#"
   xmlns:svg="http://www.w3.org/2000/svg"
   xmlns="http://www.w3.org/2000/svg"
   id="svg8"
   version="1.1"
   viewBox="0 0 148.53278 64.876289"
   height="64.876289mm"
   width="148.53278mm">
  <defs
     id="defs2">
    <clipPath
       id="clipPath1471"
       clipPathUnits="userSpaceOnUse">
      <circle
         r="23.53587"
         cy="75.968102"
         cx="71.761864"
         id="circle1473"
         style="opacity:1;fill:none;fill-opacity:1;stroke:#000000;stroke-width:0.96769708;stroke-linecap:round;stroke-linejoin:round;stroke-miterlimit:4;stroke-dasharray:none;stroke-opacity:1" />
    </clipPath>
  </defs>
  <metadata
     id="metadata5">
    <rdf:RDF>
      <cc:Work
         rdf:about="">
        <dc:format>image/svg+xml</dc:format>
        <dc:type
           rdf:resource="http://purl.org/dc/dcmitype/StillImage" />
        <dc:title></dc:title>
      </cc:Work>
    </rdf:RDF>
  </metadata>
  <g
     transform="translate(-46.006031,-44.999371)"
     id="layer1">
    <circle
       r="26.836309"
       cy="121.61906"
       cx="36.285717"
       id="path819-5-0"
       style="fill:none;fill-opacity:1;stroke:#000000;stroke-width:0;stroke-linecap:round;stroke-linejoin:round;stroke-miterlimit:4;stroke-dasharray:none;stroke-opacity:1" />
    <path
       transform="scale(0.26458333)"
       id="path869"
       d="M 122.22458,553.7082 C 97.986374,549.29217 78.106009,537.44421 62.678142,518.22073 39.357243,489.16234 35.855484,448.6456 53.705193,414.40016 c 9.634076,-18.48339 31.396379,-37.13726 51.671037,-44.29058 5.39631,-1.90393 5.95054,-1.87212 6.63148,0.38056 8.76716,29.00342 29.46845,53.98554 55.67451,67.18745 l 5.82508,2.93452 -0.64517,15.65885 c -1.03762,25.18399 4.55145,45.08747 18.45018,65.70367 l 7.04838,10.45494 -3.25178,2.7196 c -5.90274,4.93672 -24.52573,13.94102 -33.77029,16.32809 -11.00024,2.84041 -29.86355,3.91631 -39.11404,2.23094 z"
       style="opacity:0;fill:none;fill-opacity:1;stroke:#000000;stroke-width:16.19797516;stroke-linecap:round;stroke-linejoin:round;stroke-miterlimit:4;stroke-dasharray:none;stroke-opacity:1" />
    <path
       transform="scale(0.26458333)"
       id="path871"
       d="M 122.22458,553.7082 C 97.986374,549.29217 78.106009,537.44421 62.678142,518.22073 39.357243,489.16234 35.855484,448.6456 53.705193,414.40016 c 9.634076,-18.48339 31.396379,-37.13726 51.671037,-44.29058 5.39631,-1.90393 5.95054,-1.87212 6.63148,0.38056 8.76716,29.00342 29.46845,53.98554 55.67451,67.18745 l 5.82508,2.93452 -0.64517,15.65885 c -1.03762,25.18399 4.55145,45.08747 18.45018,65.70367 l 7.04838,10.45494 -3.25178,2.7196 c -5.90274,4.93672 -24.52573,13.94102 -33.77029,16.32809 -11.00024,2.84041 -29.86355,3.91631 -39.11404,2.23094 z"
       style="opacity:0;fill:none;fill-opacity:1;stroke:#000000;stroke-width:16.19797516;stroke-linecap:round;stroke-linejoin:round;stroke-miterlimit:4;stroke-dasharray:none;stroke-opacity:1" />
    <path
       transform="scale(0.26458333)"
       id="path890"
       d="M 122.22458,553.7082 C 97.986374,549.29217 78.106009,537.44421 62.678142,518.22073 39.357243,489.16234 35.855484,448.6456 53.705193,414.40016 c 9.634076,-18.48339 31.396379,-37.13726 51.671037,-44.29058 5.39631,-1.90393 5.95054,-1.87212 6.63148,0.38056 8.76716,29.00342 29.46845,53.98554 55.67451,67.18745 l 5.82508,2.93452 -0.64517,15.65885 c -1.03762,25.18399 4.55145,45.08747 18.45018,65.70367 l 7.04838,10.45494 -3.25178,2.7196 c -5.90274,4.93672 -24.52573,13.94102 -33.77029,16.32809 -11.00024,2.84041 -29.86355,3.91631 -39.11404,2.23094 z"
       style="fill:#0375b4;fill-opacity:0;stroke:none;stroke-width:1.42857146" />
    <path
       transform="scale(0.26458333)"
       id="path902"
       d="M 122.22458,553.7082 C 97.986374,549.29217 78.106009,537.44421 62.678142,518.22073 39.357243,489.16234 35.855484,448.6456 53.705193,414.40016 c 9.634076,-18.48339 31.396379,-37.13726 51.671037,-44.29058 5.39631,-1.90393 5.95054,-1.87212 6.63148,0.38056 8.76716,29.00342 29.46845,53.98554 55.67451,67.18745 l 5.82508,2.93452 -0.64517,15.65885 c -1.03762,25.18399 4.55145,45.08747 18.45018,65.70367 l 7.04838,10.45494 -3.25178,2.7196 c -5.90274,4.93672 -24.52573,13.94102 -33.77029,16.32809 -11.00024,2.84041 -29.86355,3.91631 -39.11404,2.23094 z"
       style="fill:#0375b4;fill-opacity:0;stroke:none;stroke-width:1.42857146" />
    <path
       transform="scale(0.26458333)"
       id="path912"
       d=""
       style="fill:#a0a0a0;stroke:none;stroke-width:1.42857146" />
    <g
       id="g2114">
      <g
         id="g1001">
        <g
           clip-path="url(#clipPath1471)"
           id="g1467"
           style="stroke:#ffffff;stroke-opacity:1;fill:none;fill-opacity:0.94117647;stroke-width:2;stroke-miterlimit:4;stroke-dasharray:none">
          <g
             id="g897"
             style="stroke:#ffffff;stroke-opacity:1;fill:none;fill-opacity:0.94117647;stroke-width:2;stroke-miterlimit:4;stroke-dasharray:none">
            <circle
               r="20.977678"
               cy="66.615654"
               cx="55.770481"
               id="path856"
               style="opacity:1;fill:none;fill-opacity:0.94117647;stroke:#ffffff;stroke-width:2;stroke-linecap:round;stroke-linejoin:round;stroke-miterlimit:4;stroke-dasharray:none;stroke-opacity:1" />
            <circle
               r="20.977678"
               cy="93.343552"
               cx="71.162361"
               id="path856-8"
               style="opacity:1;fill:none;fill-opacity:0.94117647;stroke:#ffffff;stroke-width:2;stroke-linecap:round;stroke-linejoin:round;stroke-miterlimit:4;stroke-dasharray:none;stroke-opacity:1" />
            <circle
               r="20.977678"
               cy="66.961189"
               cx="87.717331"
               id="path856-1"
               style="opacity:1;fill:none;fill-opacity:0.94117647;stroke:#ffffff;stroke-width:2;stroke-linecap:round;stroke-linejoin:round;stroke-miterlimit:4;stroke-dasharray:none;stroke-opacity:1" />
            <circle
               r="23.617794"
               cy="75.834465"
               cx="71.761864"
               id="path881"
               style="opacity:1;fill:none;fill-opacity:0.94117647;stroke:#ffffff;stroke-width:3;stroke-linecap:round;stroke-linejoin:round;stroke-miterlimit:4;stroke-dasharray:none;stroke-opacity:1" />
          </g>
        </g>
        <circle
           r="23.319267"
           cy="76.168556"
           cx="71.695045"
           id="path1475"
           style="opacity:1;fill:none;fill-opacity:1;stroke:#a02465;stroke-width:1;stroke-linecap:round;stroke-linejoin:round;stroke-miterlimit:4;stroke-dasharray:none;stroke-opacity:0" />
        <circle
           r="14.684514"
           cy="76.235367"
           cx="71.494606"
           id="path1475-6"
           style="opacity:1;fill:none;fill-opacity:0.94117647;stroke:#ffffff;stroke-width:1.5;stroke-linecap:round;stroke-linejoin:round;stroke-miterlimit:4;stroke-dasharray:none;stroke-opacity:1" />
        <text
           xml:space="preserve"
           style="font-style:normal;font-weight:normal;font-size:17.16705322px;line-height:1.25;font-family:sans-serif;letter-spacing:0px;word-spacing:0px;fill:#ffffff;fill-opacity:0.94117647;stroke:none;stroke-width:0.42917633;"
           x="96.28643"
           y="82.479149"
           id="text894"><tspan
             x="96.28643"
             y="82.479149"
             id="tspan892"
             style="stroke-width:0.42917633;fill:#ffffff;fill-opacity:0.94117647;"><tspan
               x="96.28643"
               y="82.479149"
               style="font-style:normal;font-variant:normal;font-weight:300;font-stretch:normal;font-size:34.33410645px;font-family:'Sansation Light';-inkscape-font-specification:'Sansation Light, Light';font-variant-ligatures:normal;font-variant-caps:normal;font-variant-numeric:normal;font-feature-settings:normal;text-align:start;writing-mode:lr-tb;text-anchor:start;fill:#ffffff;fill-opacity:0.94117647;stroke-width:0.42917633;"
               id="tspan890">Trinity</tspan></tspan></text>
        <text
           xml:space="preserve"
           style="font-style:normal;font-weight:normal;font-size:16.55757523px;line-height:1.25;font-family:sans-serif;letter-spacing:0px;word-spacing:0px;fill:#ffffff;fill-opacity:1;stroke:#ffffff;stroke-width:0.41393939;stroke-opacity:1;"
           x="104.80875"
           y="88.990067"
           id="text888"
           transform="scale(0.96449727,1.0368096)"><tspan
             x="104.80875"
             y="88.990067"
             id="tspan886"
             style="stroke-width:0.41393939;fill:#ffffff;fill-opacity:1;stroke:#ffffff;stroke-opacity:1;"><tspan
               x="104.80875"
               y="88.990067"
               style="font-style:normal;font-variant:normal;font-weight:300;font-stretch:normal;font-size:11.44470215px;font-family:'Sansation Light';-inkscape-font-specification:'Sansation Light, Light';font-variant-ligatures:normal;font-variant-caps:normal;font-variant-numeric:normal;font-feature-settings:normal;text-align:start;writing-mode:lr-tb;text-anchor:start;fill:#ffffff;fill-opacity:1;stroke:#ffffff;stroke-width:0.41393939;stroke-opacity:1;"
               id="tspan884">College Centre</tspan></tspan></text>
      </g>
    </g>
  </g>
</svg>
